<?xml version="1.0" standalone="no"?>
<!DOCTYPE svg PUBLIC "-//W3C//DTD SVG 20010904//EN"
 "http://www.w3.org/TR/2001/REC-SVG-20010904/DTD/svg10.dtd">
<svg version="1.0" xmlns="http://www.w3.org/2000/svg"
 width="574.000000pt" height="88.000000pt" viewBox="0 0 574.000000 88.000000"
 preserveAspectRatio="xMidYMid meet">

<g transform="translate(0.000000,88.000000) scale(0.100000,-0.100000)"
fill="#000000" stroke="none">
<path d="M2906 734 c-1484 -41 -2701 -76 -2704 -79 -3 -3 -3 -7 0 -10 2 -3
1228 28 2724 69 1495 40 2721 72 2723 70 2 -2 -78 -157 -178 -344 -100 -188
-181 -346 -178 -353 2 -6 15 9 29 33 63 110 358 670 358 680 0 5 -17 9 -37 9
-21 -1 -1253 -35 -2737 -75z"/>
<path d="M2100 527 c-51 -17 -123 -93 -143 -152 -9 -27 -17 -78 -17 -114 0
-80 25 -136 77 -171 32 -22 47 -25 124 -25 81 0 90 2 131 30 23 17 58 52 76
79 17 27 32 44 32 40 0 -8 -10 -55 -25 -122 -5 -21 -2 -22 48 -22 l54 0 17 80
18 80 71 0 c88 0 137 13 176 45 l29 25 -24 -113 c-13 -61 -24 -113 -24 -114 0
-2 81 -3 179 -3 l180 0 8 42 9 43 -124 3 -124 3 7 42 c4 23 9 45 12 50 2 4 54
7 114 7 108 0 110 0 119 26 24 62 21 64 -101 64 l-111 0 6 31 c3 17 6 38 6 45
0 11 26 14 124 14 69 0 127 3 129 8 2 4 7 24 11 45 l7 37 -180 0 -179 0 -7
-52 -7 -52 -17 32 c-31 59 -52 67 -201 70 l-136 4 -24 -124 -25 -123 -5 70
c-10 126 -61 176 -184 181 -39 2 -87 -2 -106 -9z m141 -94 c74 -44 52 -211
-34 -263 -89 -55 -182 21 -161 131 23 118 114 180 195 132z m425 -8 c19 -19
23 -31 18 -48 -14 -47 -33 -57 -106 -57 -61 0 -69 2 -64 18 3 9 8 35 12 57 9
55 9 55 65 55 40 0 55 -5 75 -25z"/>
<path d="M4573 521 c-73 -34 -103 -114 -68 -181 16 -31 68 -63 120 -74 46 -10
95 -43 95 -64 0 -43 -67 -71 -124 -52 -26 8 -38 20 -48 46 -11 32 -14 34 -61
34 l-50 0 7 -42 c14 -84 59 -118 168 -126 79 -5 146 15 177 54 l19 24 35 -34
c39 -37 71 -46 157 -46 132 0 218 108 166 209 -19 37 -50 56 -122 76 -69 20
-99 44 -90 73 17 52 119 51 144 -1 12 -24 19 -27 62 -27 l50 0 -7 33 c-14 73
-59 107 -148 115 -95 7 -174 -28 -196 -86 l-10 -25 -17 33 c-28 56 -63 74
-145 78 -55 2 -82 -2 -114 -17z m131 -71 c15 -5 31 -21 38 -35 10 -22 18 -25
60 -25 42 0 48 -2 48 -21 0 -35 61 -84 128 -103 33 -9 71 -25 84 -36 22 -18
22 -20 8 -47 -34 -61 -139 -52 -166 14 -12 28 -19 33 -49 33 -24 0 -35 5 -35
14 0 35 -52 76 -121 97 -38 12 -79 29 -90 38 -19 15 -20 21 -10 40 20 36 61
48 105 31z"/>
<path d="M152 322 c-23 -114 -45 -218 -49 -230 l-6 -24 144 4 c124 3 150 6
185 25 46 24 90 72 110 118 17 39 17 25 -1 -55 -8 -36 -14 -71 -15 -77 0 -10
42 -13 180 -13 146 0 180 3 180 14 0 7 3 28 6 45 l7 31 -125 0 -125 0 10 50
10 50 113 0 c62 0 115 3 117 8 2 4 7 24 11 44 l7 37 -113 3 -114 3 9 43 8 43
122 -3 122 -3 20 -180 20 -180 61 -3 60 -3 94 175 c51 97 96 174 98 171 4 -3
-51 -280 -64 -327 -5 -17 8 -18 175 -18 l181 0 6 27 c3 16 8 36 11 46 4 15 -6
17 -121 17 -138 0 -133 -2 -115 63 l10 37 113 0 c109 0 114 1 120 23 3 12 6
32 6 45 0 21 -3 22 -111 22 l-111 0 7 37 c4 21 9 41 11 45 3 5 61 8 130 8 98
0 124 3 124 14 0 7 3 28 6 45 l7 31 -221 0 -221 0 -82 -160 c-45 -88 -84 -158
-86 -156 -3 3 -30 264 -33 314 0 1 -96 2 -214 2 l-214 0 -10 -47 c-6 -27 -17
-79 -24 -118 l-13 -70 -6 68 c-7 80 -27 112 -89 145 -38 19 -60 22 -160 22
l-115 0 -43 -208z m269 89 c25 -25 29 -37 29 -83 0 -104 -65 -168 -167 -168
-29 0 -53 3 -53 8 0 4 12 67 27 140 l28 132 53 0 c46 0 58 -4 83 -29z"/>
<path d="M1695 518 c-3 -7 -23 -101 -45 -208 -22 -107 -42 -205 -45 -218 l-5
-22 164 0 165 0 8 42 9 43 -108 3 c-59 1 -108 7 -108 11 0 5 16 82 35 172 19
90 35 170 35 176 0 18 -99 18 -105 1z"/>
<path d="M3141 323 c-23 -115 -45 -218 -48 -230 -5 -22 -2 -23 50 -23 l55 0
12 67 c22 117 21 116 92 111 78 -6 90 -20 86 -108 l-3 -65 54 -3 53 -3 -3 89
c-3 67 -8 95 -21 109 -16 18 -16 19 13 32 37 16 62 64 61 117 -1 97 -35 114
-219 114 l-139 0 -43 -207z m286 102 c36 -50 -10 -92 -110 -102 -37 -3 -67 -2
-67 3 1 12 19 95 25 113 8 22 133 10 152 -14z"/>
<path d="M3671 366 c-37 -183 -36 -217 7 -259 47 -45 148 -61 234 -37 42 12
101 72 117 121 11 35 71 312 71 329 0 6 -25 10 -55 10 -43 0 -55 -3 -55 -15 0
-9 -14 -82 -32 -163 -27 -123 -36 -151 -59 -174 -48 -49 -149 -30 -149 27 0
13 14 88 30 165 17 77 30 145 30 150 0 6 -24 10 -53 10 l-52 0 -34 -164z"/>
<path d="M4081 313 c-24 -120 -46 -224 -49 -230 -3 -10 11 -13 51 -13 l56 0
11 58 c15 78 24 96 57 120 l29 21 49 -100 49 -99 58 0 c32 0 58 3 58 6 0 3
-30 64 -66 135 -37 71 -65 131 -63 132 23 18 209 180 209 183 0 2 -31 4 -68 4
l-68 0 -92 -86 c-51 -48 -95 -84 -98 -82 -2 3 2 37 11 77 8 40 15 77 15 82 0
5 -24 9 -53 9 l-52 0 -44 -217z"/>
</g>
</svg>
